DataType=double
version=3
OpenSimVersion=4.3-2021-08-27-4bc7ad9
endheader
time	ground_force_r_vx	ground_force_r_vy	ground_force_r_vz	ground_force_r_px	ground_force_r_py	ground_force_r_pz	ground_force_l_vx	ground_force_l_vy	ground_force_l_vz	ground_force_l_px	ground_force_l_py	ground_force_l_pz	ground_torque_r_x	ground_torque_r_y	ground_torque_r_z	ground_torque_l_x	ground_torque_l_y	ground_torque_l_z
1.784	4.931927592999203	263.1809610561578	0	0	0	0	190.8314520424494	1153.738245519449	0	0	0	0	0	0	45.82670822041205	0	0	227.4692314745564
1.79031	183.6331229692342	129.4812796781828	0	0	0	0	-62.60248671488495	991.4349140154188	0	0	0	0	0	0	44.17816647048189	0	0	177.9340604246424
1.79662	81.66470392496932	56.64091747941152	0	0	0	0	-91.71707621581965	930.3446032220895	0	0	0	0	0	0	19.56913292017746	0	0	164.4565906168816
1.80293	-1.149521231059171	-0.7852469409450334	0	0	0	0	-104.4007990266619	955.7420214758414	0	0	0	0	0	0	-0.274868086530957	0	0	167.5221570685557
1.80924	-1.981759294646781e-07	-1.374733081138455e-07	0	0	0	0	-54.78410037261071	926.2144769458264	0	0	0	0	0	0	-4.806510564422793e-08	0	0	165.6244925689512
1.81555	-8.09318130417221e-13	-5.714366542182993e-13	0	0	0	0	-37.40112159189815	919.1239970006735	0	0	0	0	0	0	-1.994391926731861e-13	0	0	165.2287558992131
1.82186	-8.675716088493226e-14	-6.170472523353185e-14	0	0	0	0	-31.7187963743158	907.5688751367089	0	0	0	0	0	0	-2.162221229535581e-14	0	0	162.9724414785114
1.82817	-3.651860415329235e-14	-2.696061546775734e-14	0	0	0	0	-39.39236724859692	911.9364833616037	0	0	0	0	0	0	-9.338883755831807e-15	0	0	162.369198745149
1.83448	-1.979021687194913e-13	-1.51646757793505e-13	0	0	0	0	-30.96124429974202	905.6457875857553	0	0	0	0	0	0	-5.187682180810544e-14	0	0	161.3026064713064
1.84079	-3.300490175368099e-11	-2.562542797408758e-11	0	0	0	0	-27.85691433423142	908.3798168824818	0	0	0	0	0	0	-8.75266496469596e-12	0	0	161.3920441569514
1.8471	-7.153434231379384e-09	-5.595010488016662e-09	0	0	0	0	-21.31501959754259	906.7817551210326	0	0	0	0	0	0	-1.911821988568803e-09	0	0	161.041430019031
1.85341	-2.10828403454906e-07	-1.675410401186119e-07	0	0	0	0	-18.92484023740156	910.9136669588797	0	0	0	0	0	0	-5.697357622657824e-08	0	0	161.3257697268572
1.85972	-1.213756223915487e-06	-9.768983503069597e-07	0	0	0	0	-13.15146509036593	910.808000519255	0	0	0	0	0	0	-3.307907625666474e-07	0	0	161.1959593386323
1.86603	1.354724621135391e-06	1.091647710589949e-06	0	0	0	0	-9.497716969230366	913.2870721649487	0	0	0	0	0	0	3.698804284546797e-07	0	0	161.3329764109972
1.87234	4.355944698995284e-06	3.50647651836273e-06	0	0	0	0	-5.543572349610649	913.4956618646214	0	0	0	0	0	0	1.189439490557325e-06	0	0	161.1289872974392
1.87865	3.817583849628656e-06	3.08575033258501e-06	0	0	0	0	-2.775297303538568	914.4202743822368	0	0	0	0	0	0	1.044628802709493e-06	0	0	160.9877099405915
1.88496	2.791299284733297e-06	2.269234803822524e-06	0	0	0	0	0.8877237974086454	912.1574806757963	0	0	0	0	0	0	7.655276063692624e-07	0	0	160.4626552744417
1.89127	1.949892535925377e-06	1.594028452521379e-06	0	0	0	0	3.504305530748731	909.7408963311717	0	0	0	0	0	0	5.356540107804899e-07	0	0	159.8975232939206
1.89758	1.521599592142913e-06	1.257130398323165e-06	0	0	0	0	4.904960731500569	906.0211821996699	0	0	0	0	0	0	4.196490305696674e-07	0	0	159.0856994958695
1.90389	1.443122756267267e-06	1.213676667290726e-06	0	0	0	0	5.884765704909329	902.1808298109888	0	0	0	0	0	0	4.009428245224853e-07	0	0	158.3441263084708
1.9102	1.661616585454857e-06	1.424154045711278e-06	0	0	0	0	6.30938109283477	897.5090500726874	0	0	0	0	0	0	4.651506737966194e-07	0	0	157.5595822819797
1.91651	2.336304274099581e-06	2.034685360858756e-06	0	0	0	0	7.962438467926026	892.6244327610185	0	0	0	0	0	0	6.57747039957472e-07	0	0	157.0567001283652
1.92282	4.018505134246636e-06	3.549198043894721e-06	0	0	0	0	11.89273212518843	886.5391430135477	0	0	0	0	0	0	1.136569092091612e-06	0	0	156.7707185763325
1.92913	8.421677698263636e-06	7.546236198822953e-06	0	0	0	0	15.90219561323983	879.26525168539	0	0	0	0	0	0	2.39402831723582e-06	0	0	156.4340683057043
1.93544	2.064552994820943e-05	1.887323460884717e-05	0	0	0	0	18.86156841943198	870.254086628813	0	0	0	0	0	0	5.919719555430915e-06	0	0	155.7883832958875
1.94175	5.732262946087088e-05	5.38204755213031e-05	0	0	0	0	19.85634785463402	861.3413894903813	0	0	0	0	0	0	1.665056560680941e-05	0	0	155.0333394418056
1.94806	0.0001980717017664332	0.0001905194815941613	0	0	0	0	17.48147894149864	853.2670604799833	0	0	0	0	0	0	5.822684649249297e-05	0	0	154.1614534932123
1.95437	0.0009467851668178099	0.0009286723190539869	0	0	0	0	17.03486697581914	844.9129521180428	0	0	0	0	0	0	0.0002810386994096737	0	0	153.5227400537527
1.96068	0.005587016666198369	0.005678094412349901	0	0	0	0	20.90839970134038	835.189109925216	0	0	0	0	0	0	0.001691042679126775	0	0	153.1168551079801
1.96699	0.03389493055429592	0.03665931946131849	0	0	0	0	24.45902573410439	824.9861656276496	0	0	0	0	0	0	0.01063356285733793	0	0	152.5889475004364
1.9733	0.1551623593730418	0.256354601879509	0	0	0	0	24.95760984899409	814.6983956855751	0	0	0	0	0	0	0.06418402348862531	0	0	151.7211883971847
1.97961	0.2500461342348489	2.095175692063538	0	0	0	0	25.3751826371033	804.4865068173943	0	0	0	0	0	0	0.3970286135752795	0	0	150.7932560300601
1.98592	-8.807776122688123	13.4845187898562	0	0	0	0	26.68901991497843	794.231277459336	0	0	0	0	0	0	1.24297008691727	0	0	149.8280424479919
1.99223	-42.12248998572131	46.99836189857281	0	0	0	0	27.51272370428118	784.7566737593727	0	0	0	0	0	0	2.809215320795998	0	0	148.8225433994989
1.99854	-75.22970918444862	169.1160701999718	0	0	0	0	26.99016607655858	776.1446395149158	0	0	0	0	0	0	19.21060406198263	0	0	147.7162882253474
2.00485	-74.32008330970652	280.5694589815487	0	0	0	0	24.41417196240037	766.1945124260603	0	0	0	0	0	0	37.54610081811001	0	0	146.0489729677282
2.01116	-29.54135929656722	318.3362103989379	0	0	0	0	21.41782302533403	752.971306802694	0	0	0	0	0	0	48.96426282744093	0	0	143.4651325663694
2.01747	-10.62739710039301	391.4146688718375	0	0	0	0	17.09053976186689	739.6003300016741	0	0	0	0	0	0	62.76233463306224	0	0	140.198118968502
2.02378	-21.73554034903699	425.979799740637	0	0	0	0	10.67052490357157	726.712561628172	0	0	0	0	0	0	66.03474293234612	0	0	136.1935027189909
2.03009	-12.57802618666254	435.505289198131	0	0	0	0	7.082177227310255	714.4709138366652	0	0	0	0	0	0	67.83148470523409	0	0	131.9945201995834
2.0364	-6.918259600344411	455.5047025817915	0	0	0	0	6.210048910739124	703.2678532703998	0	0	0	0	0	0	70.72856087731495	0	0	127.8402149162456
2.04271	-1.299563156885244	479.2294507672617	0	0	0	0	3.131675979518818	695.737223906488	0	0	0	0	0	0	74.02016872277098	0	0	123.8522551024379
2.04902	-14.14545475694203	491.5079804765092	0	0	0	0	-4.271085360483163	693.6875428135911	0	0	0	0	0	0	72.69279871424575	0	0	120.1214141155232
2.05533	-12.91934127099283	494.5888577992579	0	0	0	0	-13.05499780053581	693.5864914459139	0	0	0	0	0	0	71.85798168501782	0	0	116.4680041941741
2.06164	-0.4688824470130948	480.4708222555294	0	0	0	0	-19.44811479956149	692.1207793574308	0	0	0	0	0	0	70.12479977446523	0	0	112.5729311542034
2.06795	19.578939639999	488.6460227351552	0	0	0	0	-12.79858585448193	701.5138181436488	0	0	0	0	0	0	72.82009636430718	0	0	110.6149549510921
2.07426	21.59346828393873	563.0526330653694	0	0	0	0	-6.128184583338648	712.1727072102581	0	0	0	0	0	0	81.79252012116753	0	0	111.4800541060635
2.08057	14.46060095357266	540.5385862050754	0	0	0	0	-0.6020739885113762	716.507354631985	0	0	0	0	0	0	75.4698462630443	0	0	116.4477989591356
2.08688	25.27380349150523	218.4475570553805	0	0	0	0	7.141065080704573	734.585587977449	0	0	0	0	0	0	32.97096614034481	0	0	127.400491867856
2.09319	-1.964399012865522e-06	-2.055910404527039e-06	0	0	0	0	13.12666737546683	752.3547947779555	0	0	0	0	0	0	-5.965344199829336e-07	0	0	137.9912543556541
2.0995	0	0	0	0	0	0	27.35705973003305	758.7557746547934	0	0	0	0	0	0	0	0	0	144.4475660184354
2.10581	0	0	0	0	0	0	33.63779603375945	773.7924835659219	0	0	0	0	0	0	0	0	0	149.8398036949748
2.11212	0	0	0	0	0	0	28.54961025591349	791.3697203045159	0	0	0	0	0	0	0	0	0	154.66736777587
2.11843	0	0	0	0	0	0	24.78071380184326	819.559710618404	0	0	0	0	0	0	0	0	0	160.7186064053837
2.12474	0	0	0	0	0	0	27.86057816091174	861.0907247212965	0	0	0	0	0	0	0	0	0	168.9226115128694
2.13105	0	0	0	0	0	0	31.92170161840975	883.210791493663	0	0	0	0	0	0	0	0	0	172.7479910309704
2.13736	0	0	0	0	0	0	32.78367920982749	868.8918200816022	0	0	0	0	0	0	0	0	0	168.8434571932678
2.14367	0	0	0	0	0	0	55.38656862413099	875.5897087329955	0	0	0	0	0	0	0	0	0	170.2024381240439
2.14998	0	0	0	0	0	0	108.2333590397872	934.1949467435118	0	0	0	0	0	0	0	0	0	183.6646426585619
2.15629	0	0	0	0	0	0	96.01695296388108	857.8054555593667	0	0	0	0	0	0	0	0	0	166.3611573804339
2.1626	0	0	0	0	0	0	-10.08077963892699	530.7318518236513	0	0	0	0	0	0	0	0	0	94.59269530781349
2.16891	0	0	0	0	0	0	-44.42764275032917	183.0590617179884	0	0	0	0	0	0	0	0	0	27.54932758118835
2.17522	0	0	0	0	0	0	6.230649411723039e-09	-2.056301532724755e-08	0	0	0	0	0	0	0	0	0	-2.856631868788328e-09
2.18153	0	0	0	0	0	0	0	0	0	0	0	0	0	0	0	0	0	0
2.18784	0	0	0	0	0	0	0	0	0	0	0	0	0	0	0	0	0	0
2.19415	0	0	0	0	0	0	0	0	0	0	0	0	0	0	0	0	0	0
2.20046	0	0	0	0	0	0	0	0	0	0	0	0	0	0	0	0	0	0
2.20677	0	0	0	0	0	0	0	0	0	0	0	0	0	0	0	0	0	0
2.21308	0	0	0	0	0	0	0	0	0	0	0	0	0	0	0	0	0	0
2.21939	0	0	0	0	0	0	0	0	0	0	0	0	0	0	0	0	0	0
2.2257	0	0	0	0	0	0	0	0	0	0	0	0	0	0	0	0	0	0
2.23201	0	0	0	0	0	0	0	0	0	0	0	0	0	0	0	0	0	0
2.23832	0	0	0	0	0	0	0	0	0	0	0	0	0	0	0	0	0	0
2.24463	0	0	0	0	0	0	0	0	0	0	0	0	0	0	0	0	0	0
2.25094	0	0	0	0	0	0	0	0	0	0	0	0	0	0	0	0	0	0
2.25725	0	0	0	0	0	0	0	0	0	0	0	0	0	0	0	0	0	0
2.26356	0	0	0	0	0	0	0	0	0	0	0	0	0	0	0	0	0	0
2.26987	0	0	0	0	0	0	0	0	0	0	0	0	0	0	0	0	0	0
2.27618	0	0	0	0	0	0	0	0	0	0	0	0	0	0	0	0	0	0
2.28249	0	0	0	0	0	0	0	0	0	0	0	0	0	0	0	0	0	0
2.2888	0	0	0	0	0	0	0	0	0	0	0	0	0	0	0	0	0	0
2.29511	0	0	0	0	0	0	0	0	0	0	0	0	0	0	0	0	0	0
2.30142	0	0	0	0	0	0	0	0	0	0	0	0	0	0	0	0	0	0
2.30773	0	0	0	0	0	0	0	0	0	0	0	0	0	0	0	0	0	0
2.31404	0	0	0	0	0	0	0	0	0	0	0	0	0	0	0	0	0	0
2.32035	0	0	0	0	0	0	0	0	0	0	0	0	0	0	0	0	0	0
2.32666	0	0	0	0	0	0	0	0	0	0	0	0	0	0	0	0	0	0
2.33297	0	0	0	0	0	0	0	0	0	0	0	0	0	0	0	0	0	0
2.33928	0	0	0	0	0	0	0	0	0	0	0	0	0	0	0	0	0	0
2.34559	0	0	0	0	0	0	0	0	0	0	0	0	0	0	0	0	0	0
2.3519	0	0	0	0	0	0	1.122877022065524e-12	9.545922818607945e-13	0	0	0	0	0	0	0	0	0	3.288055965166099e-13
2.35821	0	0	0	0	0	0	9.764870115387353e-11	8.914718050193383e-11	0	0	0	0	0	0	0	0	0	2.945540722970007e-11
